<svg xmlns="http://www.w3.org/2000/svg"  viewBox="0 0 100 100" width="100px" height="100px"><path fill="#f1bc19" d="M77 12A1 1 0 1 0 77 14A1 1 0 1 0 77 12Z"/><path fill="#e6edb7" d="M50 13A37 37 0 1 0 50 87A37 37 0 1 0 50 13Z"/><path fill="#f1bc19" d="M83 11A4 4 0 1 0 83 19A4 4 0 1 0 83 11Z"/><path fill="#88ae45" d="M87 22A2 2 0 1 0 87 26A2 2 0 1 0 87 22Z"/><path fill="#fbcd59" d="M81 74A2 2 0 1 0 81 78 2 2 0 1 0 81 74zM15 59A4 4 0 1 0 15 67 4 4 0 1 0 15 59z"/><path fill="#88ae45" d="M25 85A2 2 0 1 0 25 89A2 2 0 1 0 25 85Z"/><path fill="#fff" d="M18.5 49A2.5 2.5 0 1 0 18.5 54 2.5 2.5 0 1 0 18.5 49zM79.5 32A1.5 1.5 0 1 0 79.5 35 1.5 1.5 0 1 0 79.5 32z"/><path fill="#fffef4" d="M31,69.3c-2.371,0-4.3-1.929-4.3-4.3V34c0-2.371,1.929-4.3,4.3-4.3h38c2.371,0,4.3,1.929,4.3,4.3 v31c0,2.371-1.929,4.3-4.3,4.3H31z"/><path fill="#472b29" d="M69,30.4c1.985,0,3.6,1.615,3.6,3.6v31c0,1.985-1.615,3.6-3.6,3.6H31c-1.985,0-3.6-1.615-3.6-3.6 V34c0-1.985,1.615-3.6,3.6-3.6H69 M69,29H31c-2.761,0-5,2.239-5,5v31c0,2.761,2.239,5,5,5h38c2.761,0,5-2.239,5-5V34 C74,31.239,71.761,29,69,29L69,29z"/><path fill="#472b29" d="M57.5 43h-17c-.276 0-.5-.224-.5-.5s.224-.5.5-.5h17c.276 0 .5.224.5.5S57.776 43 57.5 43zM44.5 33.75h-17c-.138 0-.25-.112-.25-.25s.112-.25.25-.25h17c.138 0 .25.112.25.25S44.638 33.75 44.5 33.75zM50.5 33.75h-4c-.138 0-.25-.112-.25-.25s.112-.25.25-.25h4c.138 0 .25.112.25.25S50.638 33.75 50.5 33.75zM62.5 33.75h-10c-.138 0-.25-.112-.25-.25s.112-.25.25-.25h10c.138 0 .25.112.25.25S62.638 33.75 62.5 33.75zM72.5 33.75h-7c-.138 0-.25-.112-.25-.25s.112-.25.25-.25h7c.138 0 .25.112.25.25S72.638 33.75 72.5 33.75zM44.5 65.75h-17c-.138 0-.25-.112-.25-.25s.112-.25.25-.25h17c.138 0 .25.112.25.25S44.638 65.75 44.5 65.75zM50.5 65.75h-4c-.138 0-.25-.112-.25-.25s.112-.25.25-.25h4c.138 0 .25.112.25.25S50.638 65.75 50.5 65.75z"/><g><path fill="#472b29" d="M62.5,65.75h-10c-0.138,0-0.25-0.112-0.25-0.25s0.112-0.25,0.25-0.25h10 c0.138,0,0.25,0.112,0.25,0.25S62.638,65.75,62.5,65.75z"/></g><g><path fill="#472b29" d="M72.5,65.75h-7c-0.138,0-0.25-0.112-0.25-0.25s0.112-0.25,0.25-0.25h7c0.138,0,0.25,0.112,0.25,0.25 S72.638,65.75,72.5,65.75z"/></g><g><path fill="#472b29" d="M67.5,43h-6c-0.276,0-0.5-0.224-0.5-0.5s0.224-0.5,0.5-0.5h6c0.276,0,0.5,0.224,0.5,0.5 S67.776,43,67.5,43z"/></g><g><path fill="#472b29" d="M67.5,52h-19c-0.276,0-0.5-0.224-0.5-0.5s0.224-0.5,0.5-0.5h19c0.276,0,0.5,0.224,0.5,0.5 S67.776,52,67.5,52z"/></g><g><path fill="#472b29" d="M45.5,52h-5c-0.276,0-0.5-0.224-0.5-0.5s0.224-0.5,0.5-0.5h5c0.276,0,0.5,0.224,0.5,0.5 S45.776,52,45.5,52z"/></g><g><path fill="#472b29" d="M60.5,60h-20c-0.276,0-0.5-0.224-0.5-0.5s0.224-0.5,0.5-0.5h20c0.276,0,0.5,0.224,0.5,0.5 S60.776,60,60.5,60z"/></g><g><path fill="#472b29" d="M34.4,44.2c-0.132,0-0.26-0.053-0.354-0.146l-2.4-2.4c-0.195-0.195-0.195-0.512,0-0.707 s0.512-0.195,0.707,0l1.993,1.993l3.253-4.339c0.167-0.221,0.481-0.265,0.7-0.101c0.221,0.166,0.266,0.479,0.101,0.7l-3.6,4.8 c-0.087,0.116-0.221,0.188-0.365,0.199C34.424,44.2,34.412,44.2,34.4,44.2z"/></g><g><path fill="#472b29" d="M34.4,53.2c-0.132,0-0.26-0.053-0.354-0.146l-2.4-2.4c-0.195-0.195-0.195-0.512,0-0.707 s0.512-0.195,0.707,0l1.993,1.993l3.253-4.339c0.167-0.221,0.481-0.265,0.7-0.101c0.221,0.166,0.266,0.479,0.101,0.7l-3.6,4.8 c-0.087,0.116-0.221,0.188-0.365,0.199C34.424,53.2,34.412,53.2,34.4,53.2z"/></g><g><path fill="#472b29" d="M34.4,61.2c-0.132,0-0.26-0.053-0.354-0.146l-2.4-2.4c-0.195-0.195-0.195-0.512,0-0.707 s0.512-0.195,0.707,0l1.993,1.993l3.253-4.339c0.167-0.221,0.481-0.265,0.7-0.101c0.221,0.166,0.266,0.479,0.101,0.7l-3.6,4.8 c-0.087,0.116-0.221,0.188-0.365,0.199C34.424,61.2,34.412,61.2,34.4,61.2z"/></g></svg>